<?xml version="1.0" encoding="UTF-8"?>
<svg viewBox="0 0 744.09448 1052.3622" xmlns="http://www.w3.org/2000/svg">
 <path d="m243.82 966.97c3.325-4.3593 3.5886-5.1812 1.179-3.6764-4.3297 2.704-8.5786 0.74207-7.9084-3.6517 0.29688-1.9463 1.4803-3.3374 2.6298-3.0912 2.3253 0.49789 6.4684-2.4252 6.4684-4.5636 0-0.75768-0.80505-1.3775-1.789-1.3775s-2.6426-1.1673-3.6859-2.5942c-2.2614-3.0926-5.5124-1.5604-5.5124 2.5979 0 1.6267-1.3177 3.8805-2.9283 5.0086-2.638 1.8477-3.3502 2.9337-3.3502 5.1086 0 0.38675-2.1182-0.0352-4.707-0.93775s-4.2781-2.3348-3.7539-3.183-0.53611-2.5852-2.3563-3.8601c-3.3342-2.3353-4.6672-9.9881-1.7398-9.9881 0.86329 0 1.5696-0.68416 1.5696-1.5204s-1.0595-1.1138-2.3544-0.61689c-1.448 0.55565-2.3544-0.00297-2.3544-1.4509 0-1.2949-1.139-2.7915-2.5312-3.3258-2.0499-0.78663-2.1626-1.4155-0.59261-3.3072 1.6073-1.9367 1.3979-2.3359-1.2249-2.3359-3.6882 0-5.8336-4.2508-3.5401-7.0143 0.8707-1.0491 1.135-2.3556 0.58724-2.9034s0.12195-1.4248 1.4882-1.9491c1.998-0.76671 1.464-1.8488-2.7294-5.5306-5.557-4.8792-8.6675-5.5577-13.535-2.9526-2.5464 1.3628-3.0361 1.1017-3.0361-1.6189 0-1.784 1.0595-3.6503 2.3544-4.1472s2.3321-2.064 2.3048-3.4824c-0.03723-1.9352-0.99452-1.5054-3.8356 1.7222-2.3444 2.6634-4.7162 3.9442-6.2289 3.3637-1.3436-0.51557-2.4428-0.3321-2.4428 0.40774 1.8e-4 2.036-9.274 1.3359-11.443-0.86377-1.4885-1.5098-1.3198-2.3548 0.77996-3.9065 2.3766-1.7563 2.4144-2.2449 0.33474-4.3245-2.6-2.6-1.4841-7.6108 1.6949-7.6108 3.1562 0 3.5943-3.0744 2.1247-14.911-1.5618-12.58-0.60712-19.386 3.1921-22.76 1.4585-1.2949 4.7073-6.7906 7.2195-12.212 4.0368-8.7122 4.3781-10.569 2.936-15.971-1.2545-4.6999-1.118-7.3198 0.59031-11.332 2.8469-6.6863 1.3829-22.301-2.8275-30.157-3.7058-6.9143-3.9031-16.699-0.47062-23.336 1.7714-3.4256 2.0136-5.137 0.78481-5.5465-0.97741-0.32581-1.7771-2.6174-1.7771-5.0924s-0.95173-5.0649-2.115-5.7553c-1.6358-0.9708-1.8525-3.7231-0.95678-12.147 0.74715-7.0265 0.56073-11.848-0.52534-13.587-2.5382-4.0642 2.4352-17.911 8.1648-22.732 6.3325-5.3285 12.814-17.394 13.426-24.992 0.76217-9.4662 1.4632-11.367 5.4773-14.848 2.7889-2.4188 4.195-2.7716 5.7856-1.4516 2.5641 2.128 1.0965 5.0668-1.9471 3.8988-1.2076-0.46342-2.1957-0.07979-2.1957 0.85249 0 1.0939 1.9904 1.3216 5.6127 0.64211 3.504-0.65736 6.4525-0.35595 7.8481 0.80231 1.8375 1.525 2.2354 1.1226 2.2354-2.261 0-2.2639-0.70633-4.1162-1.5696-4.1162s-1.5696-1.0595-1.5696-2.3544c0-1.308 1.3952-2.3544 3.1393-2.3544 1.8369 0 3.1392 1.0464 3.1392 2.5224 0 1.5728 0.86745 2.1895 2.3042 1.6382 3.1498-1.2087 4.6735 1.7387 2.3476 4.5412-2.508 3.022-0.82319 2.9417 2.2245-0.10597 2.1425-2.1425 2.0691-2.9383-0.70394-7.6383-2.9337-4.9722-2.7496-11.355 0.27354-9.4869 0.77446 0.47863 2.0956-0.93808 2.936-3.1483s2.2335-4.0185 3.096-4.0185 2.6531-2.0981 3.9792-4.6624c3.1238-6.0407 8.032-8.7978 11.112-6.2418 1.7492 1.4517 2.7815 1.433 4.6086-0.08327 3.3069-2.7445 2.9312-5.2258-0.64943-4.2895-2.6622 0.69619-4.7085-2.1784-4.8228-6.775-0.04948-1.9898 11.163-4.8524 13.008-3.321 1.2894 1.07 2.8578 0.86157 4.9328-0.65571 1.6733-1.2236 4.3201-2.2247 5.8816-2.2247 2.0032 0 2.8392-1.1886 2.8392-4.0362 0-3.9494 3.1377-8.5208 5.8483-8.5208 1.7787 0 17.111-19.244 18.327-23.003 0.51523-1.5925 5.1752-6.3829 10.356-10.645 6.8224-5.6137 9.4187-8.8061 9.4187-11.581 0-4.2808 7.8001-18.798 12.115-22.548 3.1473-2.7351 12.759-4.6042 17.415-3.3865 1.6907 0.44215 3.6891 2.1822 4.4408 3.8668 1.2309 2.7585 1.6777 2.8346 4.4955 0.76583 3.0662-2.2511 3.0467-2.3285-0.97359-3.8638-4.2095-1.6076-6.7984-5.686-5.2252-8.2315 0.52456-0.84875 2.0832-0.79104 3.826 0.14166 1.6174 0.86562 3.2224 1.5739 3.5665 1.5739 1.6414 0-0.12931-6.4957-2.4783-9.0913-2.6838-2.9656-3.6151-11.395-1.4933-13.517 0.63612-0.63613 1.2684-3.4026 1.4051-6.1477s0.71162-7.4784 1.2776-10.518c0.9272-4.9804 0.36103-6.2444-5.7216-12.773-3.7128-3.9851-8.5164-7.7789-10.675-8.4307s-6.7-3.5564-10.093-6.4549-6.7478-5.3582-7.4557-5.4661-3.9357-0.72892-5.0002-0.83683-0.56867-2.2239-1.0709-5.2455-1.7752-7.0829-2.8287-9.0254-7.5741-16.63-6.6462-18.131c0.53355-0.8633-0.37692-29.282 0.41049-29.39s4.6566-26.643 6.2349-26.643c1.3326 0-0.11706-5.025-5.4952-19.048-2.1969-5.7281-3.5601-10.849-3.0293-11.38s0.09935-0.96508-0.95878-0.96508-2.5233-9.7175-3.3149-10.207c-1.7302-1.0694 3.0775-7.0592 5.6661-7.0592 2.0643 0 3.948-5.5598 2.4104-7.1142-0.55358-0.55966-1.0065-2.543-1.0065-4.4074 0-2.8183-0.83901-3.3435-4.976-3.1151-4.554 0.25141-4.9131-0.07207-4.2346-3.8141 0.40779-2.2488 1.2112-4.8446 1.7853-5.7684s2.1312-24.714 2.2084-26.009 1.1527-3.5213 2.3903-4.9475c2.7412-3.159 2.1825-7.3117-1.4898-11.074-1.5108-1.5477-2.7468-4.2268-2.7468-5.9533s-1.0178-3.1392-2.2618-3.1392-2.6198-0.57925-3.0574-1.2872c-0.88141-1.4262-2.6815-9.266-2.9074-12.662-0.07965-1.1976-1.4397-2.516-3.0225-2.9299s-2.8776-1.3444-2.8776-2.0677c0-2.6555-8.09-9.306-11.32-9.306-1.8312 0-2.8159-0.51358-2.1882-1.1413s-2.2565-2.2922-6.4093-3.699c-5.0376-1.7064-7.4131-3.3465-7.1375-4.9278 0.54527-3.1283-3.67-6.5201-6.6716-5.3682-1.7206 0.66025-2.3744-0.14586-2.3744-2.9275 0-2.3625-1.509-4.8274-3.9241-6.4098-2.1582-1.4141-8.6009-12.256-9.5209-13.982s-3.8446-4.1988-6.499-5.4937c-4.2009-2.0494-4.7242-2.9907-4.0388-7.2652 0.72311-4.51 0.2647-5.1413-5.617-7.7363l-6.4044-2.8256 5.5791-3.7911 5.5791-3.7911 3.7838 3.5547c4.3637 4.0995 6.5694 3.0718 4.3039-2.0054-2.3761-5.3251 0.62039-11.133 7.4608-14.46 5.5336-2.6916 6.1571-2.7155 8.5446-0.32802 1.4165 1.4165 3.1816 2.2008 3.9225 1.7429 1.7095-1.0565 17.198 28.727 17.219 33.112 0.00874 1.7985 0.50721 3.7614 1.1077 4.3619 1.1651 1.1651 1.8269 4.0213 2.4468 10.56 0.27009 2.8488 1.134 3.87 2.8872 3.4127 1.376-0.3589 5.168 1.1568 8.4266 3.3682s6.6015 3.6025 7.4286 3.0913 2.9382 0.61027 4.6913 2.4921l3.1876 3.4215 3.6757-3.4531c2.0216-1.8992 4.6586-3.0759 5.8599-2.6149 3.0157 1.1572 4.9475-0.37076 7.9994-6.3271 2.4304-4.7434 7.242-7.0898 7.242-3.5316 0 0.86329 1.4127 1.5696 3.1392 1.5696s3.0556 0.52975 2.9534 1.1772c-0.54614 3.4589 0.7557 4.7751 6.3936 6.4643 3.4143 1.023 8.3853 3.6922 11.047 5.9317 4.6615 3.9224 4.952 3.9695 7.9189 1.2845 1.6939-1.533 3.0798-4.0042 3.0798-5.4915 0-9.45 8.4012-18.007 15.784-16.077 2.4496 0.64058 3.1962 0.36583 2.4198-0.89045-0.61759-0.99926-0.4926-1.8169 0.27778-1.8169 1.8277 0 2.1091-2.7366 1.9646-19.111-0.06606-7.4894 2.311-20.529 3.7114-21.066 1.3796-0.52939 2.1118-1.6041 1.6271-2.3883s0.36694-5.4779 1.8924-10.43 2.5772-11.3 2.3371-14.106c-0.3997-4.6712 1.6956-6.5364 5.2896-4.7089 0.76551 0.38926 4.6675-5.904 9.7222-15.68 3.375-6.5275 6.2829-7.3485 15.247-4.305 7.5972 2.5793 10.36 2.1287 10.36-1.6896 0-1.244 0.95636-2.2618 2.1252-2.2618 2.4584 0 9.5622-6.2248 10.872-9.5263 0.77068-1.9432 1.1032-1.9406 2.4675 0.01929 1.2508 1.797 2.3745 1.9017 5.4364 0.50663 3.4461-1.5701 3.7747-1.4335 3.0664 1.2748-0.43629 1.6684 3.223 9.8609 5.8928 12.471s13.54 11.885 19.583 15.3c9.7084 5.4866 11.487 7.2393 15.277 15.057 4.2708 8.8091 4.2768 8.8701 1.3905 13.949-7.2439 12.746-10.015 16.873-11.329 16.873-0.77802 0-1.4146 3.1029-1.4146 6.8954 0 5.004 0.72181 7.1724 2.6316 7.9052 2.1595 0.82868 1.255 2.4075-5.0423 8.8009-4.2206 4.2851-6.9941 7.8659-6.1633 7.9574s3.5962 0.02323 6.1452-0.15166c4.108-0.28186 4.3946-0.02892 2.5232 2.226-1.1612 1.3992-4.7378 15.025-4.188 15.025s-1.0968 4.153-3.6591 9.2289-4.317 9.5707-3.8992 9.9884c0.74564 0.74562 2.0578 7.5616 2.9483 15.314 0.24789 2.1582 1.1096 6.6216 0.97831 8.0002-0.25448 2.6722 3.1024 6.1597 6.4701 6.7217 1.122 0.18725 3.8059 1.3395 5.9641 2.5605s4.4538 2.07 5.1013 1.8866 4.3165 1.9166 4.3165 2.9748 4.5946 5.4677 7.837 12.172c3.8786 8.0204 8.1404 14.112 12.459 17.809 6.5042 5.5673 6.5553 5.6937 5.6179 13.892-0.63742 5.575-2.3546 10.109-5.2651 13.901-5.8332 7.5999-7.8894 11.01-17.115 28.387-8.8282 16.629-9.2798 21.857-2.6434 30.608 1.9642 2.5899 10.051 14.915 9.5939 16.665-0.47483 1.8157 6.7187 15.513 6.0476 15.513s-0.32871 1.0743 0.761 2.3873c1.7721 2.1353 2.9389 6.5951 3.4579 13.217 0.09752 1.2443 1.8358 3.7164 3.8628 5.4937 2.6269 2.3031 4.7457 7.5146 7.3764 18.143 4.6911 18.952 6.1449 29.823 3.9885 29.823-0.89774 0-1.3052-0.52975-0.90541-1.1772s-0.96655-1.2788-3.0362-1.4029-3.4186 0.33159-2.9977 1.0128-0.36957 1.674-1.7568 2.2063c-2.0414 0.78336-2.1534 17.47-1.9408 21.074s-0.45794 7.3978-1.4902 8.4301c-3.0898 3.0898-2.2058 7.2625 1.6548 7.8108 2.5774 0.36606 3.5736 1.6047 3.6868 4.5841 0.08536 2.2454 0.66809 4.9124 1.295 5.9267 0.72447 1.1722-0.61891 2.4573-3.6868 3.5268-2.6546 0.92541-4.9185 2.4964-5.0308 3.4911-0.83645 7.4096-0.63248 11.502 0.65724 13.188 0.82551 1.0791 0.97478 1.962 0.33172 1.962s-0.36406 0.97013 0.62001 2.1558 5.132 2.5987 9.2175 3.14l7.4283 0.98418-0.29224 7.455c-0.16075 4.1002-0.33733 8.3796-0.3924 9.5096s-0.73602 1.6617-1.5132 1.1814-1.0916 1.4187-0.69823 4.2238c0.39314 2.8034 0.92137 7.5693 1.1739 10.591 0.31634 3.7854 1.5279 6.0359 3.8963 7.2374 1.8905 0.95904 5.1766 3.3777 7.3024 5.3749s3.8652 3.0684 3.8652 2.3806 1.0527-0.37699 2.3393 0.6908c1.4803 1.2286 1.9942 3.3164 1.3995 5.6859-0.58845 2.3446-0.25475 3.7445 0.89261 3.7445 1.0078 0 1.3959 0.70632 0.86235 1.5696s-0.27138 1.5696 0.58261 1.5696c0.97002 0 1.0586 1.7227 0.23608 4.5907-0.72412 2.5249-0.91027 4.9971-0.41364 5.4937s0.03723 0.90296-1.0209 0.90296-1.5331 0.63232-1.0554 1.4052-0.23178 1.8274-1.5765 2.3433-2.0053 1.6495-1.468 2.5189 0.37923 1.5807-0.3513 1.5807-1.4323 1.3813-1.5594 3.0695-2.5731 5.1673-5.4353 7.7312l-5.2041 4.6617 4.6101 4.8258c2.5356 2.6542 4.0296 4.8258 3.32 4.8258s0.74752 1.5874 3.238 3.5274c8.583 6.6862 9.744 7.9274 9.0665 9.6929-0.38866 1.0128 2.5269 2.6807 6.8087 3.895 4.1186 1.168 8.3714 3.2274 9.4505 4.5764s1.962 1.8071 1.962 1.018 2.119 0.88538 4.7089 3.7209 4.7313 4.5822 4.7588 3.8815 1.1174 0.13857 2.422 1.8652 2.8272 2.9432 3.3834 2.7037 1.1579 0.46676 1.337 1.5696c0.86975 5.3536 1.6588 6.8032 4.2883 7.878 1.5662 0.64017 2.4075 1.8763 1.8694 2.7468s0.12289 1.5829 1.4688 1.5829 2.4471 0.83739 2.4471 1.8609 1.3837 3.3338 3.075 5.134c3.0565 3.2535 3.0528 3.3343-0.62367 13.463-2.0343 5.6043-3.921 12.3-4.1929 14.879s-1.1115 5.541-1.8659 6.5823-0.94617 2.5817-0.42614 3.4232-0.81858 3.4334-2.9747 5.7599-3.597 4.7531-3.2019 5.3924c0.72763 1.1773-16.473 21.25-16.473 22.134s-10.987 11.9-10.987 13.195-11.862 17.596-13.89 19.376-11.234 16.172-12.777 19.71-6.8534 11.024-11.799 16.635-9.7919 12.043-10.769 14.291c-1.8632 4.2862-10.516 12.392-13.229 12.392-2.0971 0-8.1159 10.329-9.2119 15.809-0.61903 3.0951-1.6721 4.1949-3.6517 3.8136-3.1193-0.60072-7.7309 3.935-21.131 20.784-4.973 6.2528-9.5549 11.052-10.182 10.664s-1.2054 0.14717-1.285 1.1883c-0.27209 3.5569-2.1376 11.239-2.919 12.02-1.341 1.341-21.71-0.05894-23.28-1.5999-2.2616-2.2202-14.368-1.7499-16.348 0.6351-0.9581 1.1544-5.6357 3.0331-10.395 4.1748-4.8716 1.1687-8.6528 2.9489-8.6528 4.0737 0 3.4197-6.5749 4.5046-8.8063 1.4531-1.5789-2.1593-2.8804-2.4113-6.3981-1.2388-2.4288 0.8096-4.4159 2.4726-4.4159 3.6956 0 3.2304-2.7109 4.6667-5.0866 2.695-1.1289-0.93694-5.179 4.3356-5.5756 5.4147-0.54921 1.494-10.589-2.7782-11.223-1.4453-0.64566 1.3573-18.208-0.76671-22.759 3.7243-2.6333 2.5988-5.3368 3.6722-8.6329 3.4279-8.0642-0.59782-14.821 2.9631-16.264 8.5713-1.0514 4.0875-2.1461 5.0353-6.2841 5.4414-4.1746 0.40984-5.0109-0.04859-5.0109-2.7468 0-1.7813-0.18124-3.2386-0.40276-3.2386s-2.8703 0.75472-5.8861 1.6773c-11.951 3.6558-30.26 7.7404-34.696 7.7404-2.9805 0-6.0072 1.4273-8.3211 3.924-2.6348 2.843-5.2601 3.924-9.5291 3.924h-5.8924l4.2823-5.6143zm-23.148-35.196c0.41291-1.5143 0.17928-1.7383-0.65475-0.62776-0.7132 0.94967-2.3562 2.1733-3.6512 2.7192-1.6543 0.69735-1.4596 0.88402 0.65475 0.62777 1.655-0.20061 3.2981-1.4242 3.6512-2.7192zm-75.175 24.852c-0.72716-4.0375-0.21813-4.969 2.9823-5.4574 3.3359-0.50907 3.778-0.0401 4.1595 4.4125 0.17677 2.0631-6.7752 3.0804-7.1418 1.0449zm-24.879-11.51c0-1.2949 1.0595-2.3544 2.3544-2.3544s2.3544 1.0595 2.3544 2.3544-1.0595 2.3544-2.3544 2.3544-2.3544-1.0595-2.3544-2.3544zm-11.447-4.7089c-2.4109-3.0215-5.6565-5.4936-7.2124-5.4936-3.349 0-8.5436-5.2362-6.8624-6.9174 0.64292-0.64292-0.94479-0.93877-3.5282-0.65744-4.2409 0.46182-4.7434 0.03621-5.1735-4.3817-0.45071-4.6298-0.03687-5.0369 7.6887-7.5638 6.6674-2.1808 10.038-2.6267 9.0603-3.6047-2.4223-2.4223-0.53967-6.6979 2.9492-6.6979 1.5616 0 4.4091 1.0996 6.3278 2.4434s5.2573 1.9633 7.4145 4.4716 3.9221 5.5102 3.9221 6.6709 4.7089 3.5 4.7089 5.2003c0 2.1018-0.75297 2.801-2.3544 2.1865-1.2949-0.49693-2.3544-1.6693-2.3544-2.6052s-0.97874-0.36318-2.175 1.2728c-1.6698 2.2836-1.7754 3.8515-0.45452 6.7504 1.3809 3.0308 1.2268 4.137-0.78116 5.6052-1.3759 1.0061-2.7606 3.1658-3.0771 4.7993-0.93487 4.8244-3.4328 4.3683-8.0982-1.4787zm20.864 3.2319c0-3.201 3.0762-4.7076 5.2249-2.5589 1.3698 1.3698 1.2406 2.1735-0.52917 3.2924-3.3122 2.094-4.6958 1.8779-4.6958-0.7335zm47.913-2.3832c-0.51184-0.82817-0.06139-2.8976 1.001-4.5988 1.5437-2.4719 2.5462-2.7641 4.9922-1.455 2.3745 1.2708 3.3796 1.0678 4.4838-0.90525s2.1133-2.1739 4.4628-0.9165c2.5904 1.3863 2.752 2.0969 1.0934 4.8083-1.2924 2.1127-3.1326 2.9611-5.4778 2.5254-1.9424-0.36087-3.5316-0.04775-3.5316 0.69582 0 1.8463-5.8671 1.7178-7.0239-0.15381zm-10.242-10.162c0-1.3523 1.0595-2.4587 2.3544-2.4587 1.3794 0 2.3544-1.4301 2.3544-3.4532 0-4.5201 2.6912-1.7836 3.396 3.4532 0.44042 3.2724-0.18876 4.0066-3.7884 4.4207-3.0832 0.35477-4.3165-0.20583-4.3165-1.962zm28.253-4.6823c0-1.3669 1.1184-2.4852 2.4852-2.4852 2.7718 0 2.2891 3.379-0.62131 4.3492-1.0252 0.34172-1.8639-0.49703-1.8639-1.8639zm-51.185-1.1359c-2.2129-2.9022-1.8505-9.5542 0.56479-10.368 2.373-0.79931 2.6332 2.1399 0.31619 3.5719-1.1299 0.69833-1.0834 1.6949 0.1484 3.1791 0.98683 1.189 1.525 2.9694 1.196 3.9564-0.41498 1.245-1.0965 1.141-2.2254-0.33964zm48.046-5.145c0-6.9985 4.879-9.6003 7.7929-4.1556 2.6271 4.9088 1.9153 6.3817-3.084 6.3817-3.0185 0-4.7089-0.79909-4.7089-2.2261zm-19.601-2.452c-0.637-1.0307-0.45185-2.5803 0.41144-3.4436 2.0456-2.0456 3.6715 0.58521 2.0166 3.2629-0.96479 1.5611-1.5481 1.6045-2.428 0.18069zm-49.462-5.6553c0-1.3669 0.83877-2.2057 1.8639-1.8639 2.9104 0.97015 3.3932 4.3492 0.62132 4.3492-1.3669 0-2.4852-1.1184-2.4852-2.4852zm59.646-229.03c0-1.2949 1.0595-2.3544 2.3544-2.3544s2.3544 1.0595 2.3544 2.3544-1.0595 2.3544-2.3544 2.3544-2.3544-1.0595-2.3544-2.3544zm5.0833-17.527c-3.5337-1.4236-5.5086-6.7532-3.4304-9.2574 2.1524-2.5935 7.7648-3.0483 7.7648-0.62927 0 1.1016 1.0109 1.0839 3.1393-0.05522 2.7187-1.455 3.1392-1.1937 3.1392 1.9504 0 1.9967-1.4207 4.8469-3.1572 6.3337-3.2759 2.8049-4.1344 2.9958-7.4558 1.6577zm4.8311-14.051c-0.98313-2.562 2.3044-5.7031 4.5297-4.3278 2.1056 1.3013 1.3941 4.9071-1.1617 5.8879-1.4106 0.54132-2.8104-0.10705-3.368-1.5601zm141.64-139.08c-3.1658-4.5198-3.0807-6.4356 0.42699-9.61 4.07-3.6833 9.8743-3.1733 14.054 1.2349l3.5823 3.7784-5.3001 4.0426c-6.499 4.9571-9.5851 5.091-12.763 0.55408z" fill="none" stroke="#000"/>
</svg>
